<!DOCTYPE svg PUBLIC "-//W3C//DTD SVG 1.1//EN" "http://www.w3.org/Graphics/SVG/1.1/DTD/svg11.dtd">
<!-- Uploaded to: SVG Repo, www.svgrepo.com, Transformed by: SVG Repo Mixer Tools -->
<svg fill="#2436c2" width="800px" height="800px" viewBox="0 -1.5 35 35" version="1.1" xmlns="http://www.w3.org/2000/svg" data-darkreader-inline-fill="" style="--darkreader-inline-fill: var(--darkreader-background-000000, #000000);">
<g id="SVGRepo_bgCarrier" stroke-width="0"/>
<g id="SVGRepo_tracerCarrier" stroke-linecap="round" stroke-linejoin="round"/>
<g id="SVGRepo_iconCarrier"> <title>cloudy1</title> <path d="M21.254 17.031c0 0 0.479-6.444-5.427-7.179-5.062-0.517-6.602 4.187-6.602 4.187s-1.524-1.466-3.592-0.269c-1.851 1.143-1.523 3.234-1.523 3.234s-4.11 0.799-4.11 4.99c0.113 4.256 4.437 4.15 4.437 4.15l16.173 0.043c0 0 3.871 0.045 4.576-3.943 0.273-4.353-3.932-5.213-3.932-5.213zM31.254 13.032c0 0 0.479-6.444-5.426-7.18-5.062-0.517-6.664 4.249-6.664 4.249s2.949 1.711 3.074 6.336c1.875 0.563 3.873 2.11 3.936 5.735l4.436 0.016c0 0 3.871 0.045 4.576-3.943 0.273-4.355-3.932-5.213-3.932-5.213z"/> </g>
</svg>